<svg width="21" height="20" viewBox="0 0 21 20" fill="none" xmlns="http://www.w3.org/2000/svg">
<path d="M19.0002 10H16.9335C16.5693 9.99924 16.2149 10.1178 15.9244 10.3375C15.634 10.5572 15.4235 10.866 15.3252 11.2167L13.3668 18.1834C13.3542 18.2266 13.3279 18.2646 13.2918 18.2917C13.2558 18.3187 13.2119 18.3334 13.1668 18.3334C13.1218 18.3334 13.0779 18.3187 13.0418 18.2917C13.0058 18.2646 12.9795 18.2266 12.9668 18.1834L8.36683 1.81669C8.35421 1.77341 8.32789 1.7354 8.29183 1.70835C8.25577 1.68131 8.21191 1.66669 8.16683 1.66669C8.12175 1.66669 8.07789 1.68131 8.04183 1.70835C8.00577 1.7354 7.97945 1.77341 7.96683 1.81669L6.0085 8.78335C5.91055 9.13265 5.70131 9.44045 5.41255 9.66003C5.12378 9.87961 4.77126 9.99898 4.4085 10H2.3335" stroke="#2563EB" stroke-width="2" stroke-linecap="round" stroke-linejoin="round"/>
</svg>
