<svg width="24" height="25" viewBox="0 0 24 25" fill="none" xmlns="http://www.w3.org/2000/svg">
<g id="Frame">
<path id="Vector" d="M12 5.33325C12.0012 4.93328 11.9224 4.53712 11.7682 4.16805C11.614 3.79899 11.3876 3.46448 11.1023 3.1842C10.8169 2.90392 10.4784 2.68353 10.1067 2.53598C9.73491 2.38844 9.33739 2.31673 8.93751 2.32506C8.53762 2.3334 8.14344 2.42161 7.77815 2.58452C7.41286 2.74742 7.08383 2.98173 6.81041 3.27366C6.537 3.56558 6.32472 3.90924 6.18606 4.28441C6.04741 4.65957 5.98517 5.05868 6.00301 5.45825C5.41521 5.60939 4.86952 5.8923 4.40724 6.28556C3.94497 6.67883 3.57825 7.17213 3.33486 7.7281C3.09146 8.28408 2.97777 8.88815 3.0024 9.49457C3.02703 10.101 3.18933 10.6938 3.47701 11.2283C2.97119 11.6392 2.57344 12.1675 2.31835 12.7672C2.06327 13.3669 1.95857 14.0198 2.01338 14.6692C2.06818 15.3186 2.28083 15.9448 2.63282 16.4933C2.98481 17.0417 3.46548 17.4959 4.03301 17.8163C3.96293 18.3585 4.00475 18.9093 4.1559 19.4348C4.30705 19.9602 4.56431 20.4491 4.9118 20.8712C5.25929 21.2933 5.68962 21.6397 6.17623 21.889C6.66284 22.1383 7.19539 22.2852 7.74099 22.3206C8.28659 22.356 8.83365 22.2792 9.3484 22.0949C9.86315 21.9106 10.3346 21.6227 10.7338 21.249C11.1329 20.8753 11.4512 20.4238 11.669 19.9223C11.8868 19.4208 11.9994 18.88 12 18.3333V5.33325Z" stroke="#8D00A6" stroke-width="2" stroke-linecap="round" stroke-linejoin="round"/>
<path id="Vector_2" d="M12 5.33325C11.9988 4.93328 12.0776 4.53712 12.2318 4.16805C12.386 3.79899 12.6124 3.46448 12.8977 3.1842C13.1831 2.90392 13.5216 2.68353 13.8934 2.53598C14.2651 2.38844 14.6626 2.31673 15.0625 2.32506C15.4624 2.3334 15.8566 2.42161 16.2219 2.58452C16.5872 2.74742 16.9162 2.98173 17.1896 3.27366C17.463 3.56558 17.6753 3.90924 17.814 4.28441C17.9526 4.65957 18.0149 5.05868 17.997 5.45825C18.5848 5.60939 19.1305 5.8923 19.5928 6.28556C20.0551 6.67883 20.4218 7.17213 20.6652 7.7281C20.9086 8.28408 21.0223 8.88815 20.9976 9.49457C20.973 10.101 20.8107 10.6938 20.523 11.2283C21.0288 11.6392 21.4266 12.1675 21.6817 12.7672C21.9368 13.3669 22.0415 14.0198 21.9867 14.6692C21.9318 15.3186 21.7192 15.9448 21.3672 16.4933C21.0152 17.0417 20.5345 17.4959 19.967 17.8163C20.0371 18.3585 19.9953 18.9093 19.8441 19.4348C19.693 19.9602 19.4357 20.4491 19.0882 20.8712C18.7407 21.2933 18.3104 21.6397 17.8238 21.889C17.3372 22.1383 16.8046 22.2852 16.259 22.3206C15.7134 22.356 15.1664 22.2792 14.6516 22.0949C14.1369 21.9106 13.6654 21.6227 13.2663 21.249C12.8671 20.8753 12.5488 20.4238 12.331 19.9223C12.1133 19.4208 12.0006 18.88 12 18.3333V5.33325Z" stroke="#8D00A6" stroke-width="2" stroke-linecap="round" stroke-linejoin="round"/>
<path id="Vector_3" d="M15 13.3333C14.1604 13.0379 13.4273 12.5002 12.8933 11.7883C12.3593 11.0763 12.0485 10.2219 12 9.33325C11.9515 10.2219 11.6407 11.0763 11.1067 11.7883C10.5727 12.5002 9.83956 13.0379 9 13.3333" stroke="#8D00A6" stroke-width="2" stroke-linecap="round" stroke-linejoin="round"/>
<path id="Vector_4" d="M17.599 6.83325C17.841 6.41384 17.9779 5.94207 17.998 5.45825" stroke="#8D00A6" stroke-width="2" stroke-linecap="round" stroke-linejoin="round"/>
<path id="Vector_5" d="M6.00299 5.45825C6.02277 5.94199 6.15932 6.41375 6.40099 6.83325" stroke="#8D00A6" stroke-width="2" stroke-linecap="round" stroke-linejoin="round"/>
<path id="Vector_6" d="M3.47699 11.2293C3.65993 11.0803 3.85569 10.9477 4.06199 10.8333" stroke="#8D00A6" stroke-width="2" stroke-linecap="round" stroke-linejoin="round"/>
<path id="Vector_7" d="M19.938 10.8333C20.1443 10.9477 20.34 11.0803 20.523 11.2293" stroke="#8D00A6" stroke-width="2" stroke-linecap="round" stroke-linejoin="round"/>
<path id="Vector_8" d="M5.99999 18.3333C5.31082 18.3336 4.63326 18.1558 4.03299 17.8173" stroke="#8D00A6" stroke-width="2" stroke-linecap="round" stroke-linejoin="round"/>
<path id="Vector_9" d="M19.967 17.8173C19.3667 18.1558 18.6892 18.3336 18 18.3333" stroke="#8D00A6" stroke-width="2" stroke-linecap="round" stroke-linejoin="round"/>
</g>
</svg>
