<svg width="24" height="25" viewBox="0 0 24 25" fill="none" xmlns="http://www.w3.org/2000/svg">
<g id="Frame">
<path id="Vector" d="M22 12.3333H19.52C19.083 12.3323 18.6577 12.4746 18.3091 12.7382C17.9606 13.0019 17.708 13.3725 17.59 13.7933L15.24 22.1533C15.2249 22.2052 15.1933 22.2508 15.15 22.2833C15.1067 22.3157 15.0541 22.3333 15 22.3333C14.9459 22.3333 14.8933 22.3157 14.85 22.2833C14.8067 22.2508 14.7751 22.2052 14.76 22.1533L9.24 2.51325C9.22485 2.46132 9.19327 2.41571 9.15 2.38325C9.10673 2.3508 9.05409 2.33325 9 2.33325C8.94591 2.33325 8.89327 2.3508 8.85 2.38325C8.80673 2.41571 8.77515 2.46132 8.76 2.51325L6.41 10.8733C6.29246 11.2924 6.04138 11.6618 5.69486 11.9253C5.34835 12.1888 4.92532 12.332 4.49 12.3333H2" stroke="#8D00A6" stroke-width="2" stroke-linecap="round" stroke-linejoin="round"/>
</g>
</svg>
