<svg width="24" height="25" viewBox="0 0 24 25" fill="none" xmlns="http://www.w3.org/2000/svg">
<g id="Frame">
<path id="Vector" d="M15 2.33325H9C8.44772 2.33325 8 2.78097 8 3.33325V5.33325C8 5.88554 8.44772 6.33325 9 6.33325H15C15.5523 6.33325 16 5.88554 16 5.33325V3.33325C16 2.78097 15.5523 2.33325 15 2.33325Z" stroke="#8D00A6" stroke-width="2" stroke-linecap="round" stroke-linejoin="round"/>
<path id="Vector_2" d="M16 4.33325H18C18.5304 4.33325 19.0391 4.54397 19.4142 4.91904C19.7893 5.29411 20 5.80282 20 6.33325V20.3333C20 20.8637 19.7893 21.3724 19.4142 21.7475C19.0391 22.1225 18.5304 22.3333 18 22.3333H6C5.46957 22.3333 4.96086 22.1225 4.58579 21.7475C4.21071 21.3724 4 20.8637 4 20.3333V6.33325C4 5.80282 4.21071 5.29411 4.58579 4.91904C4.96086 4.54397 5.46957 4.33325 6 4.33325H8" stroke="#8D00A6" stroke-width="2" stroke-linecap="round" stroke-linejoin="round"/>
<path id="Vector_3" d="M9 14.3333L11 16.3333L15 12.3333" stroke="#8D00A6" stroke-width="2" stroke-linecap="round" stroke-linejoin="round"/>
</g>
</svg>
