<svg width="32" height="33" viewBox="0 0 32 33" fill="none" xmlns="http://www.w3.org/2000/svg">
<g id="Frame">
<path id="Vector" d="M16 6.99995C16.0016 6.46665 15.8965 5.93843 15.6909 5.44634C15.4854 4.95426 15.1835 4.50825 14.803 4.13454C14.4226 3.76083 13.9712 3.46698 13.4755 3.27025C12.9799 3.07353 12.4498 2.97791 11.9167 2.98903C11.3835 3.00014 10.8579 3.11776 10.3708 3.33497C9.88379 3.55217 9.44509 3.86458 9.08053 4.25382C8.71598 4.64305 8.43294 5.10126 8.24807 5.60148C8.06319 6.10171 7.98021 6.63385 8.004 7.16661C7.22027 7.36813 6.49267 7.74534 5.87631 8.26969C5.25994 8.79404 4.77098 9.45178 4.44646 10.1931C4.12193 10.9344 3.97034 11.7398 4.00318 12.5484C4.03602 13.3569 4.25242 14.1474 4.636 14.8599C3.96157 15.4079 3.43123 16.1122 3.09112 16.9119C2.751 17.7115 2.61141 18.5821 2.68448 19.4479C2.75756 20.3138 3.04109 21.1487 3.5104 21.88C3.97972 22.6113 4.62062 23.2168 5.37733 23.6439C5.28389 24.3669 5.33965 25.1014 5.54118 25.802C5.74271 26.5026 6.08573 27.1544 6.54904 27.7172C7.01236 28.28 7.58614 28.7419 8.23496 29.0743C8.88377 29.4067 9.59383 29.6025 10.3213 29.6497C11.0488 29.6969 11.7782 29.5945 12.4645 29.3488C13.1508 29.103 13.7795 28.7192 14.3117 28.221C14.8439 27.7227 15.2682 27.1207 15.5586 26.452C15.849 25.7834 15.9992 25.0623 16 24.3333V6.99995Z" stroke="#8D00A6" stroke-width="2" stroke-linecap="round" stroke-linejoin="round"/>
<path id="Vector_2" d="M16 6.99995C15.9984 6.46665 16.1035 5.93843 16.3091 5.44634C16.5147 4.95426 16.8165 4.50825 17.197 4.13454C17.5774 3.76083 18.0288 3.46698 18.5245 3.27025C19.0202 3.07353 19.5502 2.97791 20.0834 2.98903C20.6165 3.00014 21.1421 3.11776 21.6292 3.33497C22.1162 3.55217 22.5549 3.86458 22.9195 4.25382C23.284 4.64305 23.5671 5.10126 23.7519 5.60148C23.9368 6.10171 24.0198 6.63385 23.996 7.16661C24.7797 7.36813 25.5073 7.74534 26.1237 8.26969C26.7401 8.79404 27.229 9.45178 27.5536 10.1931C27.8781 10.9344 28.0297 11.7398 27.9968 12.5484C27.964 13.3569 27.7476 14.1474 27.364 14.8599C28.0384 15.4079 28.5688 16.1122 28.9089 16.9119C29.249 17.7115 29.3886 18.5821 29.3155 19.4479C29.2425 20.3138 28.9589 21.1487 28.4896 21.88C28.0203 22.6113 27.3794 23.2168 26.6227 23.6439C26.7161 24.3669 26.6604 25.1014 26.4588 25.802C26.2573 26.5026 25.9143 27.1544 25.451 27.7172C24.9877 28.28 24.4139 28.7419 23.7651 29.0743C23.1162 29.4067 22.4062 29.6025 21.6787 29.6497C20.9512 29.6969 20.2218 29.5945 19.5355 29.3488C18.8492 29.103 18.2205 28.7192 17.6883 28.221C17.1562 27.7227 16.7318 27.1207 16.4414 26.452C16.151 25.7834 16.0008 25.0623 16 24.3333V6.99995Z" stroke="#8D00A6" stroke-width="2" stroke-linecap="round" stroke-linejoin="round"/>
<path id="Vector_3" d="M20 17.6666C18.8806 17.2728 17.9031 16.5559 17.1911 15.6066C16.4791 14.6573 16.0646 13.5181 16 12.3333C15.9354 13.5181 15.5209 14.6573 14.8089 15.6066C14.0969 16.5559 13.1194 17.2728 12 17.6666" stroke="#8D00A6" stroke-width="2" stroke-linecap="round" stroke-linejoin="round"/>
<path id="Vector_4" d="M23.4653 8.99996C23.788 8.44074 23.9706 7.81172 23.9973 7.16663" stroke="#8D00A6" stroke-width="2" stroke-linecap="round" stroke-linejoin="round"/>
<path id="Vector_5" d="M8.00403 7.16663C8.03039 7.8116 8.21247 8.44062 8.5347 8.99996" stroke="#8D00A6" stroke-width="2" stroke-linecap="round" stroke-linejoin="round"/>
<path id="Vector_6" d="M4.63599 14.8613C4.87991 14.6626 5.14092 14.4859 5.41599 14.3333" stroke="#8D00A6" stroke-width="2" stroke-linecap="round" stroke-linejoin="round"/>
<path id="Vector_7" d="M26.584 14.3333C26.859 14.4859 27.1201 14.6626 27.364 14.8613" stroke="#8D00A6" stroke-width="2" stroke-linecap="round" stroke-linejoin="round"/>
<path id="Vector_8" d="M7.99999 24.3333C7.08109 24.3337 6.17768 24.0967 5.37732 23.6453" stroke="#8D00A6" stroke-width="2" stroke-linecap="round" stroke-linejoin="round"/>
<path id="Vector_9" d="M26.6227 23.6453C25.8223 24.0967 24.9189 24.3337 24 24.3333" stroke="#8D00A6" stroke-width="2" stroke-linecap="round" stroke-linejoin="round"/>
</g>
</svg>
