<svg width="48" height="48" viewBox="0 0 48 48" fill="none" xmlns="http://www.w3.org/2000/svg">
<g id="Frame">
<path id="Vector" d="M24 26V42" stroke="#9CA3AF" stroke-width="2" stroke-linecap="round" stroke-linejoin="round"/>
<path id="Vector_2" d="M7.99994 29.798C6.51403 28.2798 5.39308 26.4434 4.72201 24.4279C4.05095 22.4123 3.84736 20.2705 4.12667 18.1646C4.40598 16.0587 5.16086 14.044 6.33413 12.273C7.50741 10.5021 9.06831 9.02141 10.8986 7.94308C12.7289 6.86475 14.7806 6.21709 16.8983 6.04913C19.016 5.88118 21.1441 6.19735 23.1215 6.9737C25.0989 7.75004 26.8737 8.9662 28.3114 10.5301C29.7492 12.0939 30.8122 13.9644 31.4199 16H34.9999C36.931 15.9998 38.8109 16.6206 40.3619 17.7709C41.913 18.9211 43.053 20.5397 43.6135 22.3876C44.174 24.2355 44.1253 26.2146 43.4746 28.0327C42.8239 29.8508 41.6057 31.4114 39.9999 32.484" stroke="#9CA3AF" stroke-width="2" stroke-linecap="round" stroke-linejoin="round"/>
<path id="Vector_3" d="M16 34L24 26L32 34" stroke="#9CA3AF" stroke-width="2" stroke-linecap="round" stroke-linejoin="round"/>
</g>
</svg>
